<mxfile host="app.diagrams.net" agent="Mozilla/5.0 (Windows NT 10.0; Win64; x64) AppleWebKit/537.36 (KHTML, like Gecko) Chrome/131.0.0.0 Safari/537.36" version="24.8.6">
  <diagram name="Page-1" id="e7e014a7-5840-1c2e-5031-d8a46d1fe8dd">
    <mxGraphModel dx="1430" dy="873" grid="1" gridSize="10" guides="1" tooltips="1" connect="1" arrows="1" fold="1" page="1" pageScale="1" pageWidth="1169" pageHeight="826" background="none" math="0" shadow="0">
      <root>
        <mxCell id="0" />
        <mxCell id="1" parent="0" />
        <mxCell id="lFBCGmJl6VZ_pBWXIvQF-41" value="Create user" style="text;html=1;align=center;verticalAlign=middle;resizable=0;points=[];autosize=1;strokeColor=none;fillColor=none;" vertex="1" parent="1">
          <mxGeometry x="100" y="28" width="90" height="30" as="geometry" />
        </mxCell>
        <mxCell id="lFBCGmJl6VZ_pBWXIvQF-45" value="" style="edgeStyle=orthogonalEdgeStyle;rounded=0;orthogonalLoop=1;jettySize=auto;html=1;" edge="1" parent="1" source="lFBCGmJl6VZ_pBWXIvQF-42" target="lFBCGmJl6VZ_pBWXIvQF-44">
          <mxGeometry relative="1" as="geometry" />
        </mxCell>
        <mxCell id="lFBCGmJl6VZ_pBWXIvQF-42" value="Incoming request" style="rounded=0;whiteSpace=wrap;html=1;" vertex="1" parent="1">
          <mxGeometry x="187.5" y="100" width="120" height="60" as="geometry" />
        </mxCell>
        <mxCell id="lFBCGmJl6VZ_pBWXIvQF-44" value="Match request handler&lt;br&gt;router.Post(&quot;/create/user&quot;, handlers.HandleCreateUser(queries))" style="rounded=0;whiteSpace=wrap;html=1;" vertex="1" parent="1">
          <mxGeometry x="85" y="240" width="325" height="60" as="geometry" />
        </mxCell>
      </root>
    </mxGraphModel>
  </diagram>
</mxfile>
